<svg xmlns="http://www.w3.org/2000/svg" viewBox="0 0 1200 630" fill="none" role="img" aria-label="The Quantum-Ready Tech Stack: Hardware and Cloud Recommendations">
  <defs>
    <linearGradient id="bg" x1="0" y1="0" x2="1200" y2="630" gradientUnits="userSpaceOnUse">
      <stop stop-color="#0c0c0f"/>
      <stop offset="1" stop-color="#131a22"/>
    </linearGradient>
    <linearGradient id="glow" x1="0" y1="0" x2="900" y2="630" gradientUnits="userSpaceOnUse">
      <stop stop-color="#00e87a" stop-opacity="0.14"/>
      <stop offset="1" stop-color="#38bdf8" stop-opacity="0.05"/>
    </linearGradient>
  </defs>
  <rect width="1200" height="630" fill="url(#bg)"/>
  <rect width="1200" height="630" fill="url(#glow)"/>
  <rect x="0" y="0" width="8" height="630" fill="#00e87a"/>

  <g stroke="#00e87a" stroke-opacity="0.22" stroke-width="1" fill="none">
    <rect x="860" y="90" width="280" height="180" rx="10"/>
    <line x1="900" y1="140" x2="1100" y2="140"/>
    <line x1="940" y1="90" x2="940" y2="270"/>
    <line x1="1020" y1="90" x2="1020" y2="270"/>
    <line x1="1100" y1="90" x2="1100" y2="270"/>
    <path d="M900 220 L980 160 L1060 200 L1140 130"/>
  </g>
  <circle cx="980" cy="160" r="5" fill="#00e87a" fill-opacity="0.65"/>
  <circle cx="1140" cy="130" r="5" fill="#38bdf8" fill-opacity="0.65"/>
  <rect x="72" y="56" width="162" height="34" rx="17" fill="#00e87a" fill-opacity="0.12" stroke="#00e87a" stroke-opacity="0.35"/>
  <text x="90" y="78" fill="#00e87a" font-family="Inter, system-ui, sans-serif" font-size="14" font-weight="600" letter-spacing="0.04em">INFRASTRUCTURE</text>
  <rect x="1008" y="56" width="72" height="34" rx="17" fill="#a78bfa" fill-opacity="0.12" stroke="#a78bfa" stroke-opacity="0.4"/>
  <text x="1044" y="78" fill="#a78bfa" font-family="Inter, system-ui, sans-serif" font-size="14" font-weight="600">Review</text>
  <text x="72" y="244" fill="#e4e4ec" font-family="Inter, system-ui, sans-serif" font-size="42" font-weight="700">The Quantum-Ready Tech Stack:</text>
  <text x="72" y="300" fill="#e4e4ec" font-family="Inter, system-ui, sans-serif" font-size="42" font-weight="700">Hardware and Cloud</text>
  <text x="72" y="356" fill="#e4e4ec" font-family="Inter, system-ui, sans-serif" font-size="42" font-weight="700">Recommendations</text>
  <text x="72" y="590" fill="#8888a0" font-family="Inter, system-ui, sans-serif" font-size="16" font-weight="500">qubitlogic.dev</text>
  <circle cx="1128" cy="578" r="5" fill="#00e87a" fill-opacity="0.8"/>
  <circle cx="1154" cy="578" r="5" fill="#38bdf8" fill-opacity="0.55"/>
</svg>
