<svg xmlns="http://www.w3.org/2000/svg" viewBox="0 0 96 96" fill="none" role="img" aria-label="Qiskit vs PennyLane: Which Quantum Framework Should You Use in 2026?">
  <defs>
    <linearGradient id="bg" x1="0" y1="0" x2="96" y2="96" gradientUnits="userSpaceOnUse">
      <stop stop-color="#0c0c0f"/>
      <stop offset="1" stop-color="#0d0b14"/>
    </linearGradient>
    <radialGradient id="glow" cx="50%" cy="44%" r="52%">
      <stop stop-color="#a78bfa" stop-opacity="0.22"/>
      <stop offset="1" stop-color="#a78bfa" stop-opacity="0"/>
    </radialGradient>
  </defs>
  <rect width="96" height="96" fill="url(#bg)"/>
  <rect width="96" height="96" fill="url(#glow)"/>
  <rect x="0" y="0" width="3.5" height="96" fill="#a78bfa"/>

  <path d="M24 10 L42 20 L42 44 C42 56 34 64 24 70 C14 64 6 56 6 44 L6 20 Z" fill="#a78bfa" fill-opacity="0.15" stroke="#a78bfa" stroke-width="2.5"/>
  <text x="24" y="48" text-anchor="middle" fill="#a78bfa" font-family="ui-monospace,monospace" font-size="20" font-weight="700">Q</text>
  <text x="48" y="44" text-anchor="middle" fill="#555" font-family="system-ui,sans-serif" font-size="12" font-weight="700">vs</text>
  <path d="M72 10 L90 20 L90 44 C90 56 82 64 72 70 C62 64 54 56 54 44 L54 20 Z" fill="#00e87a" fill-opacity="0.15" stroke="#00e87a" stroke-width="2.5"/>
  <text x="72" y="48" text-anchor="middle" fill="#00e87a" font-family="ui-monospace,monospace" font-size="14" font-weight="700">PL</text>
</svg>
