<svg xmlns="http://www.w3.org/2000/svg" viewBox="0 0 96 96" fill="none" role="img" aria-label="Building a Quantum-Inspired Optimizer in Python">
  <defs>
    <linearGradient id="bg" x1="0" y1="0" x2="96" y2="96" gradientUnits="userSpaceOnUse">
      <stop stop-color="#0c0c0f"/>
      <stop offset="1" stop-color="#0d0b14"/>
    </linearGradient>
    <radialGradient id="glow" cx="50%" cy="44%" r="52%">
      <stop stop-color="#a78bfa" stop-opacity="0.22"/>
      <stop offset="1" stop-color="#a78bfa" stop-opacity="0"/>
    </radialGradient>
  </defs>
  <rect width="96" height="96" fill="url(#bg)"/>
  <rect width="96" height="96" fill="url(#glow)"/>
  <rect x="0" y="0" width="3.5" height="96" fill="#a78bfa"/>

  <line x1="10" y1="84" x2="88" y2="84" stroke="#a78bfa" stroke-opacity="0.3" stroke-width="1.5"/>
  <path d="M12 75 C22 42 36 18 48 14 C60 10 74 28 84 58" stroke="#a78bfa" stroke-width="3.5" fill="none" stroke-linecap="round"/>
  <circle cx="48" cy="14" r="8" fill="#a78bfa" fill-opacity="0.9"/>
  <path d="M48 7 L50.4 12 L56 12 L51.8 15.2 L53.6 21 L48 17.7 L42.4 21 L44.2 15.2 L40 12 L45.6 12 Z" fill="#a78bfa"/>
  <path d="M22 60 L36 34" stroke="#00e87a" stroke-width="2" stroke-dasharray="3,2" stroke-linecap="round" stroke-opacity="0.7"/>
  <path d="M76 50 L62 26" stroke="#00e87a" stroke-width="2" stroke-dasharray="3,2" stroke-linecap="round" stroke-opacity="0.7"/>
</svg>
