<svg xmlns="http://www.w3.org/2000/svg" viewBox="0 0 96 96" fill="none" role="img" aria-label="Simulating Circuit Depth: Code Optimization">
  <defs>
    <linearGradient id="bg" x1="0" y1="0" x2="96" y2="96" gradientUnits="userSpaceOnUse">
      <stop stop-color="#0c0c0f"/>
      <stop offset="1" stop-color="#0d0b14"/>
    </linearGradient>
    <radialGradient id="glow" cx="50%" cy="44%" r="52%">
      <stop stop-color="#a78bfa" stop-opacity="0.22"/>
      <stop offset="1" stop-color="#a78bfa" stop-opacity="0"/>
    </radialGradient>
  </defs>
  <rect width="96" height="96" fill="url(#bg)"/>
  <rect width="96" height="96" fill="url(#glow)"/>
  <rect x="0" y="0" width="3.5" height="96" fill="#a78bfa"/>

  <line x1="8" y1="28" x2="88" y2="28" stroke="#a78bfa" stroke-opacity="0.5" stroke-width="2.5"/>
  <line x1="8" y1="48" x2="88" y2="48" stroke="#a78bfa" stroke-opacity="0.5" stroke-width="2.5"/>
  <line x1="8" y1="68" x2="88" y2="68" stroke="#a78bfa" stroke-opacity="0.5" stroke-width="2.5"/>
  <rect x="16" y="20" width="16" height="16" rx="3" fill="#a78bfa" fill-opacity="0.85" stroke="#a78bfa"/>
  <text x="24" y="32" text-anchor="middle" fill="#0c0c0f" font-family="ui-monospace,monospace" font-size="10" font-weight="700">H</text>
  <rect x="44" y="20" width="16" height="16" rx="3" fill="#00e87a" fill-opacity="0.75" stroke="#00e87a"/>
  <text x="52" y="32" text-anchor="middle" fill="#0c0c0f" font-family="ui-monospace,monospace" font-size="8" font-weight="700">RZ</text>
  <rect x="28" y="40" width="16" height="16" rx="3" fill="#a78bfa" fill-opacity="0.75" stroke="#a78bfa"/>
  <text x="36" y="52" text-anchor="middle" fill="#0c0c0f" font-family="ui-monospace,monospace" font-size="10" font-weight="700">X</text>
  <circle cx="62" cy="68" r="8" fill="none" stroke="#a78bfa" stroke-width="2.5"/>
  <line x1="54" y1="68" x2="70" y2="68" stroke="#a78bfa" stroke-width="2.5"/>
  <line x1="62" y1="60" x2="62" y2="76" stroke="#a78bfa" stroke-width="2.5"/>
  <circle cx="62" cy="48" r="4" fill="#a78bfa" fill-opacity="0.85"/>
  <line x1="62" y1="52" x2="62" y2="60" stroke="#a78bfa" stroke-width="2"/>
</svg>
